{"title":"The Purge, Anarchy 2014 DVDrip English Klam","uid":11106332,"size":1464204237,"categoryP":"video","categoryS":"movies","magnet":"?xt=urn:btih:0c8fc522cc57c58e911e568f373538df85a33a2d&amp;dn=The+Purge%2C+Anarchy+2014+DVDrip+English+Klam&amp;tr=udp%3A%2F%2Ftracker.openbittorrent.com%3A80&amp;tr=udp%3A%2F%2Fopen.demonii.com%3A1337&amp;tr=udp%3A%2F%2Ftracker.coppersurfer.tk%3A6969&amp;tr=udp%3A%2F%2Fexodus.desync.com%3A6969","seeders":4,"leechers":0,"uploader":"Klambake","files":-1,"time":1411727291,"description":"With: Frank Grillo, Michael K. Williams and Zach Gilford\n\nEens per jaar vindt 'The Purge' plaats: een nacht waarin geen wetten of regels gelden. We maken kennis met een stad waar niemand een werkend beveiligingssysteem heeft. Een jong koppel is op desbetreffende avond onderweg naar huis, wanneer het tweetal te kampen krijgt met autopech. De zon begint te dalen en ze besluiten hun auto te verlaten. Wanneer ze de stadsgrenzen naderen komt er echter een gemaskerde motorbende achter hen aan.\n\nA young couple works to survive on the streets after their car breaks down right as the annual purge commences.\n &lt;a href=&quot;\nhttp://www.imdb.com/title/tt2975578&quot; rel=&quot;nofollow&quot; target=&quot;_NEW&quot;&gt;\nhttp://www.imdb.com/title/tt2975578&lt;/a&gt;\t\n\n--------------------- Dutch Friends 4ever ---------------------\n---------------------------------------------------------------\n- Bezoek ook eens mijn vrienden op: &lt;a href=&quot; http://www.Film-Test.nl&quot; rel=&quot;nofollow&quot; target=&quot;_NEW&quot;&gt; http://www.Film-Test.nl&lt;/a&gt; --\n----- voor mijn Nederlandse Sync. ondertitels ---- en meer ----\n------- http://www.Film-Test.nl ---- Over Films en meer -------\n---------------------------------------------------------------\n &lt;a href=&quot;\nhttp://i.imgur.com/0t0il7D.jpg&quot; rel=&quot;nofollow&quot; target=&quot;_NEW&quot;&gt;\nhttp://i.imgur.com/0t0il7D.jpg&lt;/a&gt; &lt;a href=&quot;\nhttp://i.imgur.com/pDeYVEp.jpg&quot; rel=&quot;nofollow&quot; target=&quot;_NEW&quot;&gt;\nhttp://i.imgur.com/pDeYVEp.jpg&lt;/a&gt; &lt;a href=&quot;\nhttp://i.imgur.com/wmBeN4s.jpg&quot; rel=&quot;nofollow&quot; target=&quot;_NEW&quot;&gt;\nhttp://i.imgur.com/wmBeN4s.jpg&lt;/a&gt;\n\nGeneral:\n\nComplete name                            : The PurgeAnarchy.avi\nFormat                                   : AVI\nFormat/Info                              : Audio Video Interleave\nFile size                                : 1.36 GiB\nDuration                                 : 1h 43mn\nOverall bit rate                         : 1 887 Kbps\n\nVideo:\n\nFormat                                   : MPEG-4 Visual\nFormat profile                           : Simple@L3\nFormat settings, BVOP                    : No\nFormat settings, QPel                    : No\nFormat settings, GMC                     : No warppoints\nFormat settings, Matrix                  : Default (H.263)\nCodec ID                                 : XVID\nCodec ID/Hint                            : XviD\nDuration                                 : 1h 43mn\nBit rate                                 : 1 492 Kbps\nWidth                                    : 720 pixels\nHeight                                   : 304 pixels\nDisplay aspect ratio                     : 2.35:1\nFrame rate                               : 25.000 fps\nColor space                              : YUV\nChroma subsampling                       : 4:2:0\nBit depth                                : 8 bits\nScan type                                : Progressive\nCompression mode                         : Lossy\nBits/(Pixel*Frame)                       : 0.273\nStream size                              : 1.08 GiB (79%)\nWriting library                          : XviD 1.1.2 (UTC 2006-11-01)\n\nAudio:\n\nFormat                                   : AC-3\nFormat/Info                              : Audio Coding 3\nMode extension                           : CM (complete main)\nFormat settings, Endianness              : Big\nCodec ID                                 : 2000\nDuration                                 : 1h 43mn\nSource duration                          : 1h 43mn\nBit rate mode                            : Constant\nBit rate                                 : 384 Kbps\nChannel(s)                               : 6 channels\nChannel positions                        : Front: L C R, Side: L R, LFE\nSampling rate                            : 48.0 KHz\nBit depth                                : 16 bits\nCompression mode                         : Lossy\nStream size                              : 284 MiB (20%)\nAlignment                                : Aligned on interleaves\nInterleave, duration                     : 32 ms (0.80 video frame)\n","torrent":{"xt":"urn:btih:0c8fc522cc57c58e911e568f373538df85a33a2d","amp;dn":"The+Purge%2C+Anarchy+2014+DVDrip+English+Klam","amp;tr":["udp%3A%2F%2Ftracker.openbittorrent.com%3A80","udp%3A%2F%2Fopen.demonii.com%3A1337","udp%3A%2F%2Ftracker.coppersurfer.tk%3A6969","udp%3A%2F%2Fexodus.desync.com%3A6969"],"infoHash":"0c8fc522cc57c58e911e568f373538df85a33a2d","infoHashBuffer":{"type":"Buffer","data":[12,143,197,34,204,87,197,142,145,30,86,143,55,53,56,223,133,163,58,45]},"announce":[],"urlList":[]}}